<svg id="Слой_1" data-name="Слой 1" xmlns="http://www.w3.org/2000/svg" viewBox="0 0 120.21 31.09"><defs><style>.cls-1{fill:#1e9c9c;}.cls-2{fill:#27d2c8;}.cls-3{fill:#85efe9;}</style></defs><path class="cls-1" d="M38.56,21.27a.44.44,0,0,1-.45-.45V9.12a.44.44,0,0,1,.45-.45H47a.41.41,0,0,1,.32.13.44.44,0,0,1,.13.32v1.69a.49.49,0,0,1-.13.33.44.44,0,0,1-.32.12H41.22v2.43h5.35a.39.39,0,0,1,.32.15.41.41,0,0,1,.13.32v1.57a.45.45,0,0,1-.13.32.44.44,0,0,1-.32.13H41.22v2.5h5.89a.44.44,0,0,1,.32.12.44.44,0,0,1,.13.33v1.69a.44.44,0,0,1-.45.45Zm14.29.18a4.35,4.35,0,0,1-1.57-.27,3.41,3.41,0,0,1-1.19-.83A4,4,0,0,1,49.34,19a6.15,6.15,0,0,1-.31-1.8c0-.24,0-.45,0-.63s0-.4,0-.63a5.87,5.87,0,0,1,.31-1.75,4.11,4.11,0,0,1,.75-1.33A3.15,3.15,0,0,1,51.28,12a3.79,3.79,0,0,1,1.57-.31,3.47,3.47,0,0,1,1.54.31,3.35,3.35,0,0,1,1.1.75V8.94a.44.44,0,0,1,.45-.45h2.2a.38.38,0,0,1,.3.13.39.39,0,0,1,.15.32V20.82a.39.39,0,0,1-.15.32.38.38,0,0,1-.3.13h-2a.41.41,0,0,1-.32-.13.44.44,0,0,1-.13-.32v-.58a3.36,3.36,0,0,1-1.11.87A3.74,3.74,0,0,1,52.85,21.45Zm1-2.41a1.63,1.63,0,0,0,1-.25,1.48,1.48,0,0,0,.52-.69,2.37,2.37,0,0,0,.2-.9c0-.24,0-.47,0-.68s0-.44,0-.67a2.11,2.11,0,0,0-.2-.83,1.5,1.5,0,0,0-.54-.63,1.65,1.65,0,0,0-.93-.25,1.71,1.71,0,0,0-1,.25,1.38,1.38,0,0,0-.48.69,3.48,3.48,0,0,0-.18,1,5.24,5.24,0,0,0,0,1.12,3.48,3.48,0,0,0,.18,1,1.38,1.38,0,0,0,.48.69A1.71,1.71,0,0,0,53.82,19ZM65,21.45a4.79,4.79,0,0,1-3.38-1.15,4.59,4.59,0,0,1-1.32-3.42v-.63A5.32,5.32,0,0,1,61,13.82a3.9,3.9,0,0,1,1.62-1.55A5.24,5.24,0,0,1,65,11.73a4.9,4.9,0,0,1,2.61.63,4,4,0,0,1,1.57,1.71,5.57,5.57,0,0,1,.52,2.47V17a.46.46,0,0,1-.45.45H63.5v.12a2.93,2.93,0,0,0,.18,1,1.52,1.52,0,0,0,.5.68,1.36,1.36,0,0,0,.83.25,1.51,1.51,0,0,0,.6-.1,2.91,2.91,0,0,0,.41-.27l.25-.27a.84.84,0,0,1,.25-.22.74.74,0,0,1,.33-.05h2.23a.39.39,0,0,1,.29.1.29.29,0,0,1,.11.27,1.7,1.7,0,0,1-.31.74,3.63,3.63,0,0,1-.85.87,4.67,4.67,0,0,1-1.36.68A6.29,6.29,0,0,1,65,21.45ZM63.5,15.64h3v0a2.64,2.64,0,0,0-.18-1,1.28,1.28,0,0,0-.52-.66,1.4,1.4,0,0,0-.83-.24,1.42,1.42,0,0,0-.83.24,1.49,1.49,0,0,0-.5.66,2.64,2.64,0,0,0-.18,1Zm8.35,5.63a.44.44,0,0,1-.33-.13.44.44,0,0,1-.12-.32V8.94a.44.44,0,0,1,.12-.32.44.44,0,0,1,.33-.13H74a.44.44,0,0,1,.33.13.44.44,0,0,1,.12.32V20.82a.44.44,0,0,1-.12.32.44.44,0,0,1-.33.13Z"/><path class="cls-2" d="M78.76,21.27a.65.65,0,0,1-.48-.18.72.72,0,0,1-.22-.41l-2-11.51a.14.14,0,0,1,0-.07v0a.34.34,0,0,1,.11-.25.35.35,0,0,1,.27-.13h2.23c.34,0,.52.13.56.4l1.17,7L81.71,12a1.45,1.45,0,0,1,.18-.31.49.49,0,0,1,.42-.18H83.6a.51.51,0,0,1,.44.18,1,1,0,0,1,.16.31l1.29,4.14,1.17-7c0-.27.23-.4.56-.4h2.23a.32.32,0,0,1,.27.13.31.31,0,0,1,.11.25v.12l-2,11.51a.72.72,0,0,1-.22.41.65.65,0,0,1-.48.18H85.46a.62.62,0,0,1-.47-.16.94.94,0,0,1-.22-.31L83,15.65,81.14,20.8a.94.94,0,0,1-.22.31.55.55,0,0,1-.45.16Zm15.17.18a4.12,4.12,0,0,1-1.75-.36,3.22,3.22,0,0,1-1.2-1,2.38,2.38,0,0,1-.45-1.42,2.35,2.35,0,0,1,1-2,6.42,6.42,0,0,1,2.77-1l2.25-.34V15a1.58,1.58,0,0,0-.27-1,1.23,1.23,0,0,0-1-.34,1.62,1.62,0,0,0-.83.2,1.4,1.4,0,0,0-.48.54.51.51,0,0,1-.45.23h-2a.4.4,0,0,1-.3-.1.32.32,0,0,1-.09-.29,1.49,1.49,0,0,1,.23-.74,3.26,3.26,0,0,1,.76-.85A4.11,4.11,0,0,1,93.44,12a6,6,0,0,1,1.91-.27,6.49,6.49,0,0,1,2,.27,3.37,3.37,0,0,1,1.33.76,2.82,2.82,0,0,1,.77,1.15,3.89,3.89,0,0,1,.26,1.44v5.47a.39.39,0,0,1-.15.32.38.38,0,0,1-.3.13H97.17a.44.44,0,0,1-.33-.13.44.44,0,0,1-.12-.32v-.63a2.69,2.69,0,0,1-.63.63,3.28,3.28,0,0,1-.94.45A3.73,3.73,0,0,1,93.93,21.45Zm.84-2.05a2,2,0,0,0,.94-.22,1.57,1.57,0,0,0,.67-.7,2.71,2.71,0,0,0,.25-1.21V17l-1.53.27a2.88,2.88,0,0,0-1.24.45.82.82,0,0,0-.38.69.8.8,0,0,0,.18.52,1.19,1.19,0,0,0,.47.34A1.83,1.83,0,0,0,94.77,19.4Zm8.41,5.29a.4.4,0,0,1-.27-.11.36.36,0,0,1-.1-.27V24.2l0-.12,1.4-3.39-3.45-8.17a.48.48,0,0,1-.06-.21.59.59,0,0,1,.15-.27.32.32,0,0,1,.27-.13h2a.4.4,0,0,1,.34.13.4.4,0,0,1,.16.25l2.07,5.24,2.11-5.24a.94.94,0,0,1,.18-.25.45.45,0,0,1,.36-.13h2a.35.35,0,0,1,.27.13.32.32,0,0,1,.12.25.8.8,0,0,1,0,.23l-5.1,11.79a.49.49,0,0,1-.18.25.45.45,0,0,1-.36.13Zm12.55-3.24a6.91,6.91,0,0,1-2-.25,5,5,0,0,1-1.33-.65,3,3,0,0,1-.75-.77,1.58,1.58,0,0,1-.27-.71.35.35,0,0,1,.12-.32.42.42,0,0,1,.31-.14H114l.11.08a3,3,0,0,1,.47.32,2.33,2.33,0,0,0,.54.32,1.64,1.64,0,0,0,.73.15,1.7,1.7,0,0,0,.85-.2.63.63,0,0,0,.34-.59.65.65,0,0,0-.16-.47,1.58,1.58,0,0,0-.67-.38,9.2,9.2,0,0,0-1.47-.36,7.32,7.32,0,0,1-1.64-.56A2.73,2.73,0,0,1,112,16a2.46,2.46,0,0,1-.38-1.38,2.42,2.42,0,0,1,.47-1.39,3.37,3.37,0,0,1,1.37-1.08,5.06,5.06,0,0,1,2.21-.43,5.63,5.63,0,0,1,1.8.25,4.49,4.49,0,0,1,1.3.61,3.2,3.2,0,0,1,.81.78,1.52,1.52,0,0,1,.29.72.42.42,0,0,1-.11.32.39.39,0,0,1-.29.13h-1.87l-.15,0-.12-.07a1.91,1.91,0,0,1-.43-.29,2.6,2.6,0,0,0-.51-.32,1.54,1.54,0,0,0-.72-.15,1.14,1.14,0,0,0-.75.22.68.68,0,0,0-.27.56.69.69,0,0,0,.14.43,1.49,1.49,0,0,0,.63.36,12.14,12.14,0,0,0,1.49.36,5.41,5.41,0,0,1,2,.65,2.58,2.58,0,0,1,1,1,2.63,2.63,0,0,1,.3,1.23,2.42,2.42,0,0,1-.52,1.53,3.26,3.26,0,0,1-1.51,1A7.32,7.32,0,0,1,115.73,21.45Z"/><path class="cls-2" d="M9.07.3a2.75,2.75,0,0,1,3.5,1.5,2.51,2.51,0,0,1-.78,2.81l.44,1.21.71.82a.72.72,0,0,0,.65.25,8,8,0,0,1,2,0,.75.75,0,0,0,.59-.2l.51-.5L17,5.08a1.71,1.71,0,0,1-.24-1.57,1.73,1.73,0,0,1,3.31,1,1.71,1.71,0,0,1-1,1.12l-.42,1.22.1.67a.75.75,0,0,0,.36.55A8.62,8.62,0,0,1,21,9.56a.76.76,0,0,0,.71.23L23,9.52l1.52-.84a2.12,2.12,0,0,1,1.1-1.85,2.15,2.15,0,1,1,0,3.72l-1.52.84-.85.91a.93.93,0,0,0-.22.9h0a8.6,8.6,0,0,1,.28,1.66,1,1,0,0,0,.5.78l1.11.59,2.19.42a1.75,1.75,0,0,1,1.47-.4,1.73,1.73,0,0,1,1.36,2.13,1.74,1.74,0,0,1-3.21.38l-2.22-.42-1.36.17a.75.75,0,0,0-.58.42,8.72,8.72,0,0,1-1.66,2.47.69.69,0,0,0-.18.67l.34,1.31.84,1.31a2.42,2.42,0,0,1,1.69,4.41,2.46,2.46,0,0,1-3.36-.69,2.43,2.43,0,0,1-.1-2.49l-.89-1.39-1.09-.89a.58.58,0,0,0-.58-.1c-.22.08-.45.15-.67.21a8.73,8.73,0,0,1-3.69.17.61.61,0,0,0-.49.13l-.59.51-.43,1.07a1.73,1.73,0,1,1-3.1.38A1.72,1.72,0,0,1,9.64,25l.49-1.19L10,22.72a8.65,8.65,0,0,1-2.29-2.06l-1.49.14-1.39.69a2.49,2.49,0,0,1-1.32,2.25,2.44,2.44,0,0,1-3.28-1.2,2.55,2.55,0,0,1,1.05-3.4A2.39,2.39,0,0,1,4,19.53l1.31-.65.92-1a.24.24,0,0,0,.06-.23h0a8.48,8.48,0,0,1,0-4.61.24.24,0,0,0-.05-.23l-.79-.94L3.79,11A1.71,1.71,0,0,1,2.28,11,1.73,1.73,0,0,1,1.6,8.52a1.75,1.75,0,0,1,2.24-.65,1.73,1.73,0,0,1,1,1.23l1.7.89,1.21.12a.28.28,0,0,0,.22-.1A8.59,8.59,0,0,1,9.86,8.25a.71.71,0,0,0,.33-.6V6.56L9.73,5.27A2.63,2.63,0,0,1,7.41,3.61,2.57,2.57,0,0,1,9.07.3Z"/><path class="cls-1" d="M20.84,13.78A6.41,6.41,0,1,0,16.3,21.6,6.42,6.42,0,0,0,20.84,13.78Z"/><path class="cls-3" d="M15.8,19.72a6.43,6.43,0,0,1-7.53-3.59,5.4,5.4,0,0,0,.18,1,6.41,6.41,0,0,0,12.39-3.31,7.77,7.77,0,0,0-.33-.92A6.38,6.38,0,0,1,15.8,19.72Z"/><path class="cls-2" d="M6.17,28.8A1.83,1.83,0,1,0,4.88,31,1.83,1.83,0,0,0,6.17,28.8Z"/><path class="cls-2" d="M29,23.25a1.21,1.21,0,1,0-.85,1.47A1.21,1.21,0,0,0,29,23.25Z"/><path class="cls-2" d="M25.69,1.31a1.78,1.78,0,1,0-1.25,2.16A1.76,1.76,0,0,0,25.69,1.31Z"/><path class="cls-2" d="M15,17.36a1.66,1.66,0,1,0-1.17,2A1.63,1.63,0,0,0,15,17.36Z"/><path class="cls-2" d="M19.16,14.89a1.13,1.13,0,1,0-.8,1.37A1.12,1.12,0,0,0,19.16,14.89Z"/><path class="cls-2" d="M14.81,12.4a1,1,0,0,0-1.16-.66A.93.93,0,0,0,13,12.89a.95.95,0,0,0,1.83-.49Z"/></svg>